<svg width="128" height="128" viewBox="0 0 128 128" fill="none" xmlns="http://www.w3.org/2000/svg">
<path d="M0 0H128V128H0V0Z" fill="black"/>
<path d="M55.54 74.3592C52.8 74.3592 50.77 73.4192 49.45 71.5392C48.15 69.6592 47.5 66.9892 47.5 63.5292C47.5 60.0892 48.15 57.4292 49.45 55.5492C50.77 53.6492 52.8 52.6992 55.54 52.6992C56.58 52.6992 57.49 52.8392 58.27 53.1192C59.07 53.3992 59.76 53.7892 60.34 54.2892C60.92 54.7692 61.4 55.3592 61.78 56.0592C62.16 56.7392 62.46 57.4892 62.68 58.3092L59.08 59.3292C58.94 58.8492 58.78 58.3992 58.6 57.9792C58.42 57.5592 58.19 57.1992 57.91 56.8992C57.65 56.5792 57.32 56.3392 56.92 56.1792C56.52 55.9992 56.04 55.9092 55.48 55.9092C54.12 55.9092 53.14 56.4292 52.54 57.4692C51.96 58.5092 51.67 59.9292 51.67 61.7292V65.3292C51.67 67.1292 51.96 68.5492 52.54 69.5892C53.14 70.6292 54.12 71.1492 55.48 71.1492C56.04 71.1492 56.52 71.0692 56.92 70.9092C57.32 70.7292 57.65 70.4892 57.91 70.1892C58.19 69.8692 58.42 69.4992 58.6 69.0792C58.78 68.6592 58.94 68.2092 59.08 67.7292L62.68 68.7492C62.46 69.5692 62.16 70.3292 61.78 71.0292C61.4 71.7092 60.92 72.2992 60.34 72.7992C59.76 73.2792 59.07 73.6592 58.27 73.9392C57.49 74.2192 56.58 74.3592 55.54 74.3592Z" fill="white"/>
<path d="M72.9883 74.3592C71.6283 74.3592 70.4483 74.1192 69.4483 73.6392C68.4483 73.1392 67.6183 72.4292 66.9583 71.5092C66.3183 70.5892 65.8383 69.4592 65.5183 68.1192C65.2183 66.7792 65.0683 65.2492 65.0683 63.5292C65.0683 61.8292 65.2183 60.3092 65.5183 58.9692C65.8383 57.6092 66.3183 56.4692 66.9583 55.5492C67.6183 54.6292 68.4483 53.9292 69.4483 53.4492C70.4483 52.9492 71.6283 52.6992 72.9883 52.6992C75.7083 52.6992 77.7083 53.6492 78.9883 55.5492C80.2683 57.4492 80.9083 60.1092 80.9083 63.5292C80.9083 66.9492 80.2683 69.6092 78.9883 71.5092C77.7083 73.4092 75.7083 74.3592 72.9883 74.3592ZM72.9883 71.2092C74.4283 71.2092 75.4383 70.6992 76.0183 69.6792C76.6183 68.6392 76.9183 67.2092 76.9183 65.3892V61.6692C76.9183 59.8492 76.6183 58.4292 76.0183 57.4092C75.4383 56.3692 74.4283 55.8492 72.9883 55.8492C71.5483 55.8492 70.5283 56.3692 69.9283 57.4092C69.3483 58.4292 69.0583 59.8492 69.0583 61.6692V65.3892C69.0583 67.2092 69.3483 68.6392 69.9283 69.6792C70.5283 70.6992 71.5483 71.2092 72.9883 71.2092ZM72.9883 65.2992C72.2883 65.2992 71.7983 65.1592 71.5183 64.8792C71.2583 64.5992 71.1283 64.2592 71.1283 63.8592V63.1992C71.1283 62.7992 71.2583 62.4592 71.5183 62.1792C71.7983 61.8992 72.2883 61.7592 72.9883 61.7592C73.6883 61.7592 74.1683 61.8992 74.4283 62.1792C74.7083 62.4592 74.8483 62.7992 74.8483 63.1992V63.8592C74.8483 64.2592 74.7083 64.5992 74.4283 64.8792C74.1683 65.1592 73.6883 65.2992 72.9883 65.2992Z" fill="#D1D1D6"/>
</svg>
